<mxfile host="app.diagrams.net" modified="2024-03-10T18:07:48.227Z" agent="Mozilla/5.0 (Windows NT 10.0; Win64; x64) AppleWebKit/537.36 (KHTML, like Gecko) Chrome/122.0.0.0 Safari/537.36" etag="1ahmiK9gAQrYPXGtZO4M" version="24.0.4" type="device">
  <diagram name="Page-1" id="P2hmm0HIABy-C1WZ32GC">
    <mxGraphModel dx="1434" dy="746" grid="1" gridSize="10" guides="1" tooltips="1" connect="1" arrows="1" fold="1" page="1" pageScale="1" pageWidth="850" pageHeight="1100" math="0" shadow="0">
      <root>
        <mxCell id="0" />
        <mxCell id="1" parent="0" />
        <mxCell id="nUOTZEFC2p316sZQ1gEG-7" style="edgeStyle=orthogonalEdgeStyle;rounded=0;orthogonalLoop=1;jettySize=auto;html=1;exitX=1;exitY=0.5;exitDx=0;exitDy=0;entryX=0;entryY=0.5;entryDx=0;entryDy=0;" edge="1" parent="1" source="nUOTZEFC2p316sZQ1gEG-1" target="nUOTZEFC2p316sZQ1gEG-2">
          <mxGeometry relative="1" as="geometry" />
        </mxCell>
        <mxCell id="nUOTZEFC2p316sZQ1gEG-1" value="Start" style="ellipse;whiteSpace=wrap;html=1;aspect=fixed;" vertex="1" parent="1">
          <mxGeometry x="80" y="40" width="40" height="40" as="geometry" />
        </mxCell>
        <mxCell id="nUOTZEFC2p316sZQ1gEG-8" style="edgeStyle=orthogonalEdgeStyle;rounded=0;orthogonalLoop=1;jettySize=auto;html=1;exitX=0.5;exitY=1;exitDx=0;exitDy=0;entryX=0.5;entryY=0;entryDx=0;entryDy=0;" edge="1" parent="1" source="nUOTZEFC2p316sZQ1gEG-2" target="nUOTZEFC2p316sZQ1gEG-3">
          <mxGeometry relative="1" as="geometry" />
        </mxCell>
        <mxCell id="nUOTZEFC2p316sZQ1gEG-9" style="edgeStyle=orthogonalEdgeStyle;rounded=0;orthogonalLoop=1;jettySize=auto;html=1;exitX=1;exitY=0.5;exitDx=0;exitDy=0;entryX=0;entryY=0.5;entryDx=0;entryDy=0;" edge="1" parent="1" source="nUOTZEFC2p316sZQ1gEG-2" target="nUOTZEFC2p316sZQ1gEG-4">
          <mxGeometry relative="1" as="geometry" />
        </mxCell>
        <mxCell id="nUOTZEFC2p316sZQ1gEG-2" value="1" style="ellipse;whiteSpace=wrap;html=1;aspect=fixed;" vertex="1" parent="1">
          <mxGeometry x="240" y="40" width="40" height="40" as="geometry" />
        </mxCell>
        <mxCell id="nUOTZEFC2p316sZQ1gEG-3" value="2" style="ellipse;whiteSpace=wrap;html=1;aspect=fixed;" vertex="1" parent="1">
          <mxGeometry x="240" y="120" width="40" height="40" as="geometry" />
        </mxCell>
        <mxCell id="nUOTZEFC2p316sZQ1gEG-10" style="edgeStyle=orthogonalEdgeStyle;rounded=0;orthogonalLoop=1;jettySize=auto;html=1;exitX=1;exitY=0.5;exitDx=0;exitDy=0;entryX=0;entryY=0.5;entryDx=0;entryDy=0;" edge="1" parent="1" source="nUOTZEFC2p316sZQ1gEG-4" target="nUOTZEFC2p316sZQ1gEG-6">
          <mxGeometry relative="1" as="geometry" />
        </mxCell>
        <mxCell id="nUOTZEFC2p316sZQ1gEG-11" style="edgeStyle=orthogonalEdgeStyle;rounded=0;orthogonalLoop=1;jettySize=auto;html=1;exitX=0.5;exitY=1;exitDx=0;exitDy=0;entryX=0.5;entryY=0;entryDx=0;entryDy=0;" edge="1" parent="1" source="nUOTZEFC2p316sZQ1gEG-4" target="nUOTZEFC2p316sZQ1gEG-5">
          <mxGeometry relative="1" as="geometry" />
        </mxCell>
        <mxCell id="nUOTZEFC2p316sZQ1gEG-4" value="3" style="ellipse;whiteSpace=wrap;html=1;aspect=fixed;" vertex="1" parent="1">
          <mxGeometry x="360" y="40" width="40" height="40" as="geometry" />
        </mxCell>
        <mxCell id="nUOTZEFC2p316sZQ1gEG-5" value="4" style="ellipse;whiteSpace=wrap;html=1;aspect=fixed;" vertex="1" parent="1">
          <mxGeometry x="360" y="120" width="40" height="40" as="geometry" />
        </mxCell>
        <mxCell id="nUOTZEFC2p316sZQ1gEG-6" value="5" style="ellipse;whiteSpace=wrap;html=1;aspect=fixed;" vertex="1" parent="1">
          <mxGeometry x="480" y="40" width="40" height="40" as="geometry" />
        </mxCell>
        <mxCell id="nUOTZEFC2p316sZQ1gEG-12" value="Def:{lower, upper, value}" style="text;html=1;align=center;verticalAlign=middle;whiteSpace=wrap;rounded=0;" vertex="1" parent="1">
          <mxGeometry x="30" y="90" width="140" height="30" as="geometry" />
        </mxCell>
        <mxCell id="nUOTZEFC2p316sZQ1gEG-13" value="p-use: {value, lower}" style="text;html=1;align=center;verticalAlign=middle;whiteSpace=wrap;rounded=0;" vertex="1" parent="1">
          <mxGeometry x="200" y="10" width="120" height="30" as="geometry" />
        </mxCell>
        <mxCell id="nUOTZEFC2p316sZQ1gEG-14" value="p-use: {value, upper}" style="text;html=1;align=center;verticalAlign=middle;whiteSpace=wrap;rounded=0;" vertex="1" parent="1">
          <mxGeometry x="320" y="10" width="120" height="30" as="geometry" />
        </mxCell>
        <mxCell id="nUOTZEFC2p316sZQ1gEG-15" value="p-use: {lower, upper}" style="text;html=1;align=center;verticalAlign=middle;whiteSpace=wrap;rounded=0;" vertex="1" parent="1">
          <mxGeometry x="440" y="10" width="120" height="30" as="geometry" />
        </mxCell>
      </root>
    </mxGraphModel>
  </diagram>
</mxfile>
